# xmcd
# 
# Track frame offsets:
#     150
#     13442
#     26442
#     41142
#     54367
#     65377
#     78322
#     92837
#     105815
#     120800
#     134835
#     147402
#     159967
#     173277
#     185637
#     197962
#     210360
#     228372
#     243000
#     255382
# 
# Disc length: 3580
# 
# Revision: 8
# Processed by: cddbd v1.5.2PL0 Copyright (c) Steve Scherf et al.
# Submitted via: BonkEnc v1.0.8
# 
DISCID=fe0dfa14
DTITLE=Muddy Waters - His Best: 1956 To 1964
DYEAR=1997
DGENRE=Blues
TTITLE0=All Aboard
TTITLE1=Forty Days And Forty Nights
TTITLE2=Just To Be With You
TTITLE3=Don't Go No Farther
TTITLE4=Diamonds At Your Feet
TTITLE5=I Love The Life I Live, I Live The Life I Love
TTITLE6=Rock Me
TTITLE7=Got My Mojo Working
TTITLE8=She's Nineteen Years Old
TTITLE9=Close To You
TTITLE10=Walkin' Thru The Park
TTITLE11=She's Into Something
TTITLE12=I Feel So Good
TTITLE13=You Shook Me
TTITLE14=You Need Love
TTITLE15=My Love Strikes Like Lightning
TTITLE16=My Home Is In The Delta
TTITLE17=Good Morning, Little School Girl
TTITLE18=The Same Thing
TTITLE19=You Can't Lose What You Ain't Never Had
EXTD=
EXTT0=
EXTT1=
EXTT2=
EXTT3=
EXTT4=
EXTT5=
EXTT6=
EXTT7=
EXTT8=
EXTT9=
EXTT10=
EXTT11=
EXTT12=
EXTT13=
EXTT14=
EXTT15=
EXTT16=
EXTT17=
EXTT18=
EXTT19=
PLAYORDER=
